<mxfile host="Electron" agent="Mozilla/5.0 (Windows NT 10.0; Win64; x64) AppleWebKit/537.36 (KHTML, like Gecko) draw.io/28.2.8 Chrome/140.0.7339.240 Electron/38.4.0 Safari/537.36" version="28.2.8">
  <diagram name="第 1 页" id="cVFDLbCRVNQiPuzMP4cQ">
    <mxGraphModel dx="786" dy="516" grid="1" gridSize="10" guides="1" tooltips="1" connect="1" arrows="1" fold="1" page="1" pageScale="1" pageWidth="827" pageHeight="1169" math="0" shadow="0">
      <root>
        <mxCell id="0" />
        <mxCell id="1" parent="0" />
        <mxCell id="4HmobH1H9FdqEO8on2ay-1" value="" style="strokeWidth=2;html=1;shape=mxgraph.flowchart.database;whiteSpace=wrap;rotation=-90;" vertex="1" parent="1">
          <mxGeometry x="308.75" y="176.25" width="25" height="62.5" as="geometry" />
        </mxCell>
        <mxCell id="4HmobH1H9FdqEO8on2ay-2" value="" style="strokeWidth=2;html=1;shape=mxgraph.flowchart.database;whiteSpace=wrap;rotation=-90;" vertex="1" parent="1">
          <mxGeometry x="308.75" y="220" width="25" height="62.5" as="geometry" />
        </mxCell>
        <mxCell id="4HmobH1H9FdqEO8on2ay-3" value="" style="endArrow=classic;startArrow=classic;html=1;rounded=0;" edge="1" parent="1">
          <mxGeometry width="50" height="50" relative="1" as="geometry">
            <mxPoint x="320.75" y="240" as="sourcePoint" />
            <mxPoint x="321" y="220" as="targetPoint" />
          </mxGeometry>
        </mxCell>
        <mxCell id="4HmobH1H9FdqEO8on2ay-4" value="" style="endArrow=none;html=1;rounded=0;" edge="1" parent="1">
          <mxGeometry width="50" height="50" relative="1" as="geometry">
            <mxPoint x="321" y="230" as="sourcePoint" />
            <mxPoint x="371" y="230" as="targetPoint" />
          </mxGeometry>
        </mxCell>
        <mxCell id="4HmobH1H9FdqEO8on2ay-5" value="接触面刮擦一下" style="edgeLabel;html=1;align=center;verticalAlign=middle;resizable=0;points=[];" vertex="1" connectable="0" parent="4HmobH1H9FdqEO8on2ay-4">
          <mxGeometry x="0.08" y="1" relative="1" as="geometry">
            <mxPoint x="30" as="offset" />
          </mxGeometry>
        </mxCell>
      </root>
    </mxGraphModel>
  </diagram>
</mxfile>
